<?xml version="1.0" encoding="utf-8"?><svg xmlns="http://www.w3.org/2000/svg" xmlns:xlink="http://www.w3.org/1999/xlink" width="1536" height="796" preserveAspectRatio="xMidYMid" viewBox="0 0 1536 796" style="z-index:1;margin-right:-1.6px;display:block;background-repeat-y:initial;background-repeat-x:initial;background-color:rgb(255, 255, 255);animation-play-state:paused" ><g transform="translate(768,398) scale(1,1) translate(-768,-398)" style="transform:matrix(1, 0, 0, 1, 0, 0);animation-play-state:paused" ><linearGradient id="lg-0.7929652591288971" x1="0" x2="1" y1="0" y2="0" style="animation-play-state:paused" ><stop stop-color="#ff00ff" offset="0" style="animation-play-state:paused" ></stop>

  
<stop stop-color="#00ffff" offset="1" style="animation-play-state:paused" ></stop></linearGradient>
<path d="M 0 0 L 0 699.338 Q 153.6 605.372 307.2 590.313 T 614.4 630.393 T 921.6 416.759 T 1228.8 403.155 T 1536 279.712 L 1536 0 Z" fill="url(#lg-0.7929652591288971)" opacity="0.4" style="opacity:0.4;animation-play-state:paused" ></path>
<path d="M 0 0 L 0 693.851 Q 153.6 684.655 307.2 659.958 T 614.4 585.809 T 921.6 510.311 T 1228.8 419.197 T 1536 400.869 L 1536 0 Z" fill="url(#lg-0.7929652591288971)" opacity="0.4" style="opacity:0.4;animation-play-state:paused" ></path>
<path d="M 0 0 L 0 732.798 Q 153.6 695.403 307.2 653.316 T 614.4 500.492 T 921.6 510.733 T 1228.8 415.817 T 1536 273.786 L 1536 0 Z" fill="url(#lg-0.7929652591288971)" opacity="0.4" style="opacity:0.4;animation-play-state:paused" ></path>
<path d="M 0 0 L 0 773.061 Q 153.6 721.175 307.2 696.029 T 614.4 500.758 T 921.6 476.596 T 1228.8 418.992 T 1536 336.643 L 1536 0 Z" fill="url(#lg-0.7929652591288971)" opacity="0.4" style="opacity:0.4;animation-play-state:paused" ></path>
<path d="M 0 0 L 0 708.1 Q 153.6 716.071 307.2 692.908 T 614.4 592.665 T 921.6 496.625 T 1228.8 441.58 T 1536 308.965 L 1536 0 Z" fill="url(#lg-0.7929652591288971)" opacity="0.4" style="opacity:0.4;animation-play-state:paused" ></path></g></svg>